<svg width="19" height="21" viewBox="0 0 19 21" fill="none" xmlns="http://www.w3.org/2000/svg">
<path d="M15.9024 8.56055C15.9024 16.5795 17.0564 20.2045 9.29242 20.2045C1.52842 20.2045 2.70642 16.5795 2.70642 8.56055" stroke="#f94449" stroke-width="1.5" stroke-miterlimit="10" stroke-linecap="round" stroke-linejoin="round"/>
<path d="M17.3785 5.48633H1.22852" stroke="#f94449" stroke-width="1.5" stroke-miterlimit="10" stroke-linecap="round" stroke-linejoin="round"/>
<path d="M12.7287 5.48638C12.8163 5.00195 12.7912 4.50387 12.6553 4.03072C12.5194 3.55757 12.2764 3.12205 11.9451 2.75791C11.6139 2.39377 11.2032 2.11077 10.745 1.93085C10.2868 1.75093 9.79327 1.67892 9.30274 1.72038C8.81237 1.67924 8.31911 1.7515 7.86115 1.93157C7.40318 2.11163 6.9928 2.39467 6.66176 2.75877C6.33073 3.12287 6.08792 3.55827 5.95214 4.03125C5.81636 4.50424 5.79124 5.00213 5.87874 5.48638" stroke="#f94449" stroke-width="1.5" stroke-miterlimit="10" stroke-linecap="round" stroke-linejoin="round"/>
</svg>
