<svg width="19" height="18" viewBox="0 0 19 20" fill="none" xmlns="http://www.w3.org/2000/svg">
<path opacity="1.0" d="M16.6567 7.49464C16.6567 7.56264 16.1237 14.3036 15.8197 17.1406C15.7959 17.9131 15.4667 18.6445 14.9042 19.1745C14.3418 19.7045 13.5921 19.9897 12.8197 19.9676C11.5267 19.9966 10.2597 20.0066 9.01367 20.0066C7.69067 20.0066 6.39767 19.9966 5.14167 19.9676C4.38165 19.9706 3.65048 19.6768 3.1038 19.1488C2.55712 18.6208 2.23811 17.9003 2.21467 17.1406C1.90167 14.2936 1.37867 7.56264 1.36767 7.49464C1.3576 7.29088 1.42636 7.09106 1.55967 6.93664C1.6258 6.86344 1.70647 6.80483 1.79651 6.76454C1.88656 6.72425 1.98402 6.70317 2.08267 6.70264H15.9527C16.0511 6.70435 16.1482 6.72597 16.2381 6.76618C16.328 6.80639 16.4088 6.86438 16.4757 6.93664C16.5419 7.01265 16.592 7.10126 16.6231 7.19715C16.6543 7.29304 16.6657 7.39423 16.6567 7.49464Z" fill="#ff3f00"/>
<path d="M18.0138 3.98384C18.0152 3.88885 17.9979 3.79452 17.9628 3.70623C17.9278 3.61795 17.8756 3.53745 17.8094 3.46936C17.7431 3.40127 17.6641 3.34691 17.5768 3.30941C17.4896 3.27191 17.3957 3.25201 17.3008 3.25084H14.3848C14.093 3.24799 13.811 3.14563 13.5853 2.9607C13.3596 2.77576 13.2039 2.51934 13.1438 2.23384L12.9808 1.50684C12.8738 1.08228 12.6295 0.704981 12.2859 0.433688C11.9422 0.162394 11.5185 0.0123229 11.0808 0.00683594L6.94976 0.00683594C6.50367 0.0125086 6.07245 0.168063 5.72547 0.448478C5.37849 0.728893 5.13591 1.11787 5.03676 1.55284L4.88376 2.23484C4.82314 2.51982 4.66734 2.77568 4.44197 2.96034C4.2166 3.145 3.93509 3.24745 3.64376 3.25084H0.727756C0.632684 3.25188 0.538755 3.27169 0.451359 3.30913C0.363963 3.34657 0.284823 3.4009 0.218482 3.46901C0.15214 3.53712 0.0999039 3.61766 0.0647713 3.706C0.0296388 3.79435 0.0123021 3.88877 0.0137563 3.98384V4.36384C0.0126653 4.5553 0.0869423 4.73951 0.22054 4.87666C0.354138 5.01381 0.536331 5.0929 0.727756 5.09684H17.3008C17.492 5.09264 17.6739 5.01344 17.8073 4.87631C17.9407 4.73919 18.0149 4.55513 18.0138 4.36384V3.98384Z" fill="black"/>
</svg>
