<svg width="19" height="18" viewBox="0 0 19 18" fill="none" xmlns="http://www.w3.org/2000/svg">
<path opacity="0.4" d="M17.0047 15.9595H11.3117C11.0427 15.9621 10.7857 16.0713 10.5969 16.263C10.4082 16.4547 10.3031 16.7134 10.3047 16.9825C10.3026 17.2518 10.4075 17.5109 10.5963 17.7029C10.7851 17.8949 11.0424 18.0041 11.3117 18.0065H17.0047C17.1382 18.0056 17.2702 17.9783 17.3932 17.9264C17.5162 17.8744 17.6277 17.7987 17.7215 17.7036C17.8152 17.6085 17.8892 17.4959 17.9394 17.3721C17.9895 17.2484 18.0148 17.116 18.0137 16.9825C18.0153 16.7131 17.91 16.4541 17.7208 16.2623C17.5316 16.0705 17.2741 15.9616 17.0047 15.9595" fill="black"/>
<path d="M7.32276 3.91051L12.7228 8.27051C12.7854 8.32133 12.8258 8.39456 12.8353 8.47466C12.8448 8.55476 12.8227 8.63542 12.7738 8.69951L6.37376 17.0345C6.18094 17.2844 5.93426 17.4877 5.65205 17.6291C5.36985 17.7706 5.05939 17.8466 4.74376 17.8515L1.25176 17.8945C1.16066 17.8949 1.07214 17.8642 1.00086 17.8075C0.929579 17.7507 0.8798 17.6714 0.859759 17.5825L0.0657586 14.1325C-0.00617614 13.8216 -0.00758671 13.4986 0.0616304 13.1871C0.130848 12.8757 0.268936 12.5836 0.465759 12.3325L6.89676 3.96151C6.9211 3.92981 6.95154 3.9033 6.98627 3.88352C7.02101 3.86375 7.05934 3.85112 7.09903 3.84637C7.13871 3.84161 7.17895 3.84484 7.21737 3.85586C7.25579 3.86687 7.29162 3.88545 7.32276 3.91051Z" fill="black"/>
<path opacity="0.4" d="M15.135 5.67171L14.095 6.97171C14.0704 7.00275 14.04 7.02863 14.0054 7.04786C13.9708 7.06708 13.9328 7.07928 13.8935 7.08374C13.8541 7.0882 13.8143 7.08484 13.7763 7.07385C13.7383 7.06286 13.7028 7.04446 13.672 7.01971C12.407 5.99671 9.17197 3.36971 8.27197 2.64271C8.24017 2.61719 8.21375 2.58561 8.19425 2.5498C8.17475 2.514 8.16255 2.47467 8.15837 2.43411C8.15418 2.39355 8.15809 2.35257 8.16987 2.31353C8.18164 2.2745 8.20105 2.23819 8.22697 2.20671L9.22697 0.960711C9.44976 0.682687 9.72789 0.453982 10.0437 0.289095C10.3595 0.124208 10.7062 0.0267347 11.0617 0.00285452C11.4171 -0.0210257 11.7737 0.029208 12.1087 0.150371C12.4438 0.271534 12.75 0.460984 13.008 0.706711L14.479 1.87771C15.0536 2.30966 15.4581 2.92977 15.622 3.62971C15.7004 3.98475 15.6973 4.35295 15.6129 4.70663C15.5286 5.0603 15.3652 5.39026 15.135 5.67171Z" fill="black"/>
</svg>
