<svg width="22" height="23" viewBox="0 0 22 23" fill="none" xmlns="http://www.w3.org/2000/svg">
<path d="M6 8C6 7.44772 6.44772 7 7 7H15C15.5523 7 16 7.44772 16 8C16 8.55229 15.5523 9 15 9H7C6.44772 9 6 8.55229 6 8Z" fill="#1E1E1E"/>
<path d="M7 11C6.44772 11 6 11.4477 6 12C6 12.5523 6.44772 13 7 13H11C11.5523 13 12 12.5523 12 12C12 11.4477 11.5523 11 11 11H7Z" fill="#1E1E1E"/>
<path fill-rule="evenodd" clip-rule="evenodd" d="M1.87429 2.90187C3.53087 1.01939 6.38921 0 11 0C15.6108 0 18.4691 1.01939 20.1257 2.90187C21.7638 4.76332 22 7.22786 22 9.5C22 11.7773 21.7576 14.1557 20.5923 15.9766C19.4291 17.794 17.471 18.8807 14.5069 18.9907L12.6 21.5333C11.8 22.6 10.2 22.6 9.4 21.5333L7.49306 18.9907C4.52903 18.8807 2.57092 17.794 1.40773 15.9766C0.24241 14.1557 0 11.7773 0 9.5C0 7.22786 0.236216 4.76332 1.87429 2.90187ZM3.37571 4.22313C2.26378 5.48668 2 7.27214 2 9.5C2 11.7227 2.25759 13.5943 3.09227 14.8984C3.864 16.1043 5.24939 17 8 17C8.31476 17 8.61115 17.1482 8.8 17.4L11 20.3333L13.2 17.4C13.3889 17.1482 13.6852 17 14 17C16.7506 17 18.136 16.1043 18.9077 14.8984C19.7424 13.5943 20 11.7227 20 9.5C20 7.27214 19.7362 5.48668 18.6243 4.22313C17.5309 2.98061 15.3892 2 11 2C6.61079 2 4.46912 2.98061 3.37571 4.22313Z" fill="#1E1E1E"/>
</svg>
