<svg width="17" height="20" viewBox="0 0 17 20" fill="none" xmlns="http://www.w3.org/2000/svg">
<path d="M8.01367 13.1816C3.69767 13.1816 0.0136719 13.8616 0.0136719 16.5816C0.0136719 19.3016 3.67467 20.0066 8.01367 20.0066C12.3267 20.0066 16.0137 19.3276 16.0137 16.6066C16.0137 13.8856 12.3477 13.1816 8.01367 13.1816Z" fill="black"/>
<path opacity="0.4" d="M8.01078 10.5908C9.05744 10.5908 10.0806 10.2805 10.9509 9.69897C11.8211 9.11748 12.4994 8.29099 12.9 7.324C13.3005 6.35701 13.4053 5.29297 13.2011 4.26642C12.9969 3.23987 12.4929 2.29693 11.7528 1.55683C11.0127 0.81673 10.0697 0.312716 9.0432 0.108523C8.01665 -0.0956704 6.95261 0.0091289 5.98562 0.409668C5.01864 0.810207 4.19214 1.4885 3.61065 2.35876C3.02915 3.22903 2.71878 4.25218 2.71878 5.29884C2.71627 5.9945 2.85144 6.68378 3.1165 7.32697C3.38156 7.97016 3.77127 8.55454 4.26318 9.04645C4.75508 9.53835 5.33947 9.92806 5.98266 10.1931C6.62584 10.4582 7.31512 10.5933 8.01078 10.5908Z" fill="black"/>
</svg>
