<svg width="20" height="20" viewBox="0 0 20 20" fill="none" xmlns="http://www.w3.org/2000/svg">
<path opacity="0.4" d="M19.1135 7.59504H17.9135V6.41904C17.9135 6.30085 17.8903 6.18382 17.845 6.07463C17.7998 5.96543 17.7335 5.86622 17.6499 5.78265C17.5664 5.69907 17.4672 5.63278 17.358 5.58755C17.2488 5.54232 17.1317 5.51904 17.0135 5.51904C16.8954 5.51904 16.7783 5.54232 16.6691 5.58755C16.5599 5.63278 16.4607 5.69907 16.3771 5.78265C16.2936 5.86622 16.2273 5.96543 16.1821 6.07463C16.1368 6.18382 16.1135 6.30085 16.1135 6.41904V7.59504H14.9135C14.677 7.60288 14.4528 7.70234 14.2883 7.87243C14.1237 8.04251 14.0317 8.26989 14.0317 8.50654C14.0317 8.74319 14.1237 8.97058 14.2883 9.14066C14.4528 9.31074 14.677 9.41021 14.9135 9.41804H16.1135V10.595C16.1135 10.7132 16.1368 10.8303 16.1821 10.9395C16.2273 11.0487 16.2936 11.1479 16.3771 11.2314C16.4607 11.315 16.5599 11.3813 16.6691 11.4265C16.7783 11.4718 16.8954 11.495 17.0135 11.495C17.1317 11.495 17.2488 11.4718 17.358 11.4265C17.4672 11.3813 17.5664 11.315 17.6499 11.2314C17.7335 11.1479 17.7998 11.0487 17.845 10.9395C17.8903 10.8303 17.9135 10.7132 17.9135 10.595V9.41804H19.1135C19.3501 9.41021 19.5743 9.31074 19.7388 9.14066C19.9034 8.97058 19.9953 8.74319 19.9953 8.50654C19.9953 8.26989 19.9034 8.04251 19.7388 7.87243C19.5743 7.70234 19.3501 7.60288 19.1135 7.59504Z" fill="black"/>
<path d="M7.51367 13.0229C3.46767 13.0229 0.0136719 13.6699 0.0136719 16.2539C0.0136719 18.8379 3.44667 19.5069 7.51367 19.5069C11.5587 19.5069 15.0137 18.8599 15.0137 16.2759C15.0137 13.6919 11.5807 13.0229 7.51367 13.0229Z" fill="black"/>
<path opacity="0.4" d="M7.51379 10.5609C8.17026 10.559 8.81986 10.4272 9.42518 10.1731C10.0305 9.91904 10.5796 9.54774 11.0408 9.08058C11.502 8.61342 11.8662 8.05963 12.1125 7.45111C12.3588 6.84259 12.4823 6.19135 12.4758 5.53491C12.4851 4.8773 12.3637 4.22439 12.1185 3.61413C11.8733 3.00387 11.5092 2.44843 11.0475 1.98009C10.5857 1.51175 10.0355 1.13986 9.42881 0.88602C8.82209 0.632182 8.17097 0.501465 7.51329 0.501465C6.85561 0.501465 6.20449 0.632182 5.59778 0.88602C4.99106 1.13986 4.44084 1.51175 3.9791 1.98009C3.51737 2.44843 3.15332 3.00387 2.90812 3.61413C2.66292 4.22439 2.54146 4.8773 2.55079 5.53491C2.54419 6.19152 2.66759 6.84294 2.91388 7.45165C3.16016 8.06035 3.52447 8.6143 3.9858 9.08158C4.44713 9.54886 4.99637 9.92023 5.60187 10.1743C6.20737 10.4284 6.85715 10.5601 7.51379 10.5619" fill="black"/>
</svg>
