<svg width="23" height="16" viewBox="0 0 23 16" fill="none" xmlns="http://www.w3.org/2000/svg">
<path d="M10.9621 10.5469C7.51207 10.5469 4.60107 11.1109 4.60107 13.2859C4.60107 15.4609 7.53107 16.0069 10.9621 16.0069C14.4121 16.0069 17.3231 15.4429 17.3231 13.2679C17.3231 11.0929 14.3931 10.5469 10.9621 10.5469Z" fill="black"/>
<path opacity="0.4" d="M10.962 8.47375C11.5169 8.47416 12.0664 8.36478 12.5789 8.15191C13.0914 7.93904 13.5567 7.62689 13.948 7.23343C14.3393 6.83998 14.6489 6.373 14.859 5.85938C15.0691 5.34576 15.1754 4.79566 15.172 4.24075C15.172 3.12432 14.7285 2.05362 13.9391 1.26418C13.1496 0.47475 12.0789 0.03125 10.9625 0.03125C9.84608 0.03125 8.77538 0.47475 7.98594 1.26418C7.19651 2.05362 6.75301 3.12432 6.75301 4.24075C6.74958 4.79557 6.85593 5.3456 7.06594 5.85915C7.27596 6.3727 7.58548 6.83964 7.97669 7.23308C8.3679 7.62652 8.83307 7.93869 9.34542 8.15162C9.85777 8.36455 10.4072 8.47402 10.962 8.47375Z" fill="black"/>
<path opacity="0.4" d="M20.1013 5.22687C20.2452 4.69864 20.2658 4.14443 20.1615 3.607C20.0572 3.06956 19.8308 2.56327 19.4999 2.12717C19.1689 1.69108 18.7422 1.33685 18.2527 1.0918C17.7631 0.846759 17.2238 0.717455 16.6763 0.713867C16.4385 0.714668 16.2013 0.739122 15.9683 0.786867C15.936 0.792748 15.9069 0.810156 15.8863 0.835867C15.878 0.853823 15.8751 0.873866 15.8781 0.893451C15.8812 0.913036 15.8899 0.93128 15.9033 0.945867C16.6002 1.93047 16.9731 3.10763 16.9703 4.31387C16.9751 5.46941 16.6322 6.59967 15.9863 7.55787C15.9716 7.57993 15.9626 7.60537 15.9603 7.63182C15.9579 7.65827 15.9623 7.68488 15.973 7.7092C15.9836 7.73352 16.0002 7.75476 16.0213 7.77095C16.0423 7.78715 16.0671 7.79778 16.0933 7.80187C16.253 7.82943 16.4144 7.84514 16.5763 7.84887C17.3744 7.87757 18.1585 7.63349 18.7993 7.15686C19.4401 6.68023 19.8993 5.9995 20.1013 5.22687Z" fill="black"/>
<path d="M21.8223 10.8237C21.595 10.4538 21.2835 10.1428 20.9131 9.91622C20.5428 9.68961 20.1242 9.55373 19.6913 9.51966C18.6233 9.31115 17.5364 9.2153 16.4483 9.23366C16.4407 9.23421 16.4335 9.2371 16.4275 9.24193C16.4216 9.24676 16.4174 9.25331 16.4153 9.26066C16.4142 9.27074 16.4164 9.28091 16.4217 9.28959C16.4269 9.29827 16.4349 9.30498 16.4443 9.30866C17.2842 9.6765 17.99 10.2948 18.4653 11.0789C18.9405 11.8631 19.1619 12.7749 19.0993 13.6897C19.0955 13.717 19.098 13.7449 19.1066 13.7712C19.1152 13.7975 19.1297 13.8215 19.149 13.8413C19.1683 13.861 19.1919 13.8762 19.218 13.8854C19.244 13.8947 19.2719 13.8978 19.2993 13.8947C19.8763 13.8117 21.3593 13.4947 21.8203 12.4947C21.9459 12.2342 22.0112 11.9488 22.0112 11.6597C22.0112 11.3705 21.9459 11.0851 21.8203 10.8247" fill="black"/>
<path opacity="0.4" d="M6.05818 0.786867C5.82493 0.738567 5.58738 0.714108 5.34918 0.713867C4.80184 0.717561 4.26266 0.846958 3.77325 1.09207C3.28384 1.33719 2.85729 1.69147 2.52652 2.12758C2.19574 2.56368 1.96958 3.06995 1.86549 3.60732C1.7614 4.14469 1.78217 4.69879 1.92618 5.22687C2.12785 5.99951 2.58688 6.68033 3.22753 7.15699C3.86818 7.63366 4.65218 7.87771 5.45018 7.84887C5.61243 7.84477 5.77418 7.82907 5.93418 7.80187C5.96042 7.79778 5.98521 7.78715 6.00625 7.77095C6.02729 7.75476 6.04391 7.73352 6.05458 7.7092C6.06524 7.68488 6.0696 7.65827 6.06726 7.63182C6.06492 7.60537 6.05595 7.57993 6.04118 7.55787C5.38528 6.57644 5.04212 5.41932 5.05694 4.23899C5.07176 3.05866 5.44385 1.91052 6.12418 0.945867C6.13743 0.931172 6.14603 0.912876 6.14887 0.893295C6.15172 0.873714 6.1487 0.853728 6.14018 0.835867C6.1203 0.809268 6.09093 0.791358 6.05818 0.785867" fill="black"/>
<path d="M2.33521 9.5198C1.90288 9.55342 1.48461 9.6887 1.11446 9.91461C0.744318 10.1405 0.432775 10.4507 0.205212 10.8198C0.0791537 11.0803 0.0136719 11.3659 0.0136719 11.6553C0.0136719 11.9447 0.0791537 12.2303 0.205212 12.4908C0.665212 13.4908 2.14921 13.8098 2.72621 13.8908C2.75373 13.8942 2.78165 13.8912 2.8078 13.882C2.83395 13.8728 2.85763 13.8577 2.87699 13.8378C2.89635 13.818 2.91086 13.794 2.9194 13.7676C2.92794 13.7412 2.93027 13.7132 2.92621 13.6858C2.86461 12.7717 3.08664 11.8609 3.56201 11.0777C4.03737 10.2945 4.74288 9.67707 5.58221 9.3098C5.59194 9.30631 5.60024 9.29973 5.60584 9.29105C5.61145 9.28237 5.61404 9.27209 5.61321 9.2618C5.61158 9.25404 5.60729 9.24709 5.60108 9.24216C5.59487 9.23723 5.58714 9.23463 5.57921 9.2348C4.49088 9.21575 3.40356 9.31128 2.33521 9.5198Z" fill="black"/>
</svg>
