<svg width="15" height="20" viewBox="0 0 15 20" fill="none" xmlns="http://www.w3.org/2000/svg">
<path d="M7.0557 17.007C6.91778 17.0007 6.78366 16.9597 6.6657 16.888C4.79132 15.677 3.15212 14.136 1.8277 12.34C0.707977 10.832 0.0751232 9.01823 0.013702 7.141C0.0100749 5.88959 0.334223 4.65904 0.953889 3.57182C1.57355 2.4846 2.46713 1.57861 3.5457 0.943997C4.61522 0.320836 5.83288 -0.00264784 7.07066 0.00755847C8.30844 0.0177648 9.52061 0.361284 10.5797 1.002C11.6371 1.66163 12.5067 2.58256 13.1047 3.676C13.7066 4.77718 14.0194 6.01305 14.0137 7.268C13.8173 9.84155 12.6811 12.253 10.8217 14.043C9.8162 15.1112 8.68882 16.0576 7.4627 16.863C7.33711 16.9358 7.19911 16.9846 7.0557 17.007ZM7.0067 4.855C6.69387 4.85458 6.38413 4.91683 6.09576 5.03809C5.80739 5.15935 5.54623 5.33715 5.3277 5.561C4.9923 5.90215 4.76435 6.33421 4.67209 6.80366C4.57984 7.2731 4.62734 7.75929 4.8087 8.202C4.98287 8.64369 5.28573 9.02286 5.67802 9.29033C6.0703 9.5578 6.53391 9.70122 7.0087 9.702H7.0257C7.33621 9.70244 7.64367 9.64074 7.92997 9.52052C8.21626 9.4003 8.4756 9.22399 8.6927 9.002C8.96852 8.7181 9.17161 8.37171 9.28464 7.99237C9.39768 7.61304 9.41732 7.21199 9.34188 6.82342C9.26645 6.43485 9.09818 6.07028 8.85142 5.76079C8.60465 5.45131 8.28671 5.20607 7.9247 5.046C7.63482 4.92073 7.32249 4.85574 7.0067 4.855Z" fill="black"/>
<path opacity="0.4" d="M7.01367 20.0068C9.7751 20.0068 12.0137 19.5591 12.0137 19.0068C12.0137 18.4546 9.7751 18.0068 7.01367 18.0068C4.25225 18.0068 2.01367 18.4546 2.01367 19.0068C2.01367 19.5591 4.25225 20.0068 7.01367 20.0068Z" fill="black"/>
</svg>
