<svg width="21" height="21" viewBox="0 0 21 21" fill="none" xmlns="http://www.w3.org/2000/svg">
<path d="M5.76667 20.3761C2.32567 20.3761 0.0136719 17.9601 0.0136719 14.3661V6.05213C0.0136719 2.45913 2.32567 0.0431272 5.76667 0.0431272H9.50667C9.70558 0.0431272 9.89635 0.122145 10.037 0.262797C10.1777 0.403449 10.2567 0.594215 10.2567 0.793127C10.2567 0.99204 10.1777 1.1828 10.037 1.32346C9.89635 1.46411 9.70558 1.54313 9.50667 1.54313H5.76667C3.18267 1.54313 1.51367 3.31413 1.51367 6.05213V14.3661C1.51367 17.1051 3.18267 18.8751 5.76567 18.8751H14.5907C17.1747 18.8751 18.8437 17.1051 18.8437 14.3661V10.3381C18.8437 10.1392 18.9227 9.94845 19.0633 9.8078C19.204 9.66714 19.3948 9.58813 19.5937 9.58813C19.7926 9.58813 19.9834 9.66714 20.124 9.8078C20.2647 9.94845 20.3437 10.1392 20.3437 10.3381V14.3661C20.3437 17.9601 18.0307 20.3751 14.5897 20.3751L5.76667 20.3761ZM6.11367 14.9351C6.01359 14.9349 5.91457 14.9147 5.82238 14.8757C5.7302 14.8368 5.64671 14.7798 5.57678 14.7082C5.50686 14.6366 5.45191 14.5518 5.41515 14.4587C5.37838 14.3657 5.36055 14.2662 5.36267 14.1661L5.45767 10.3871C5.47555 9.63761 5.78222 8.92395 6.31367 8.39513L13.7847 0.922127C14.373 0.33596 15.1697 0.00683594 16.0002 0.00683594C16.8307 0.00683594 17.6273 0.33596 18.2157 0.922127L19.4337 2.13913C19.7248 2.43008 19.9557 2.77554 20.1133 3.15577C20.2708 3.536 20.3519 3.94354 20.3519 4.35513C20.3519 4.76671 20.2708 5.17426 20.1133 5.55449C19.9557 5.93472 19.7248 6.28018 19.4337 6.57113L11.9237 14.0811C11.6531 14.3531 11.3313 14.5688 10.9768 14.7156C10.6224 14.8623 10.2423 14.9373 9.85867 14.9361L6.11367 14.9351ZM7.37167 9.45613C7.11391 9.71295 6.96524 10.0594 6.95667 10.4231L6.88167 13.4341H9.85867C10.0446 13.4342 10.2286 13.3974 10.4002 13.326C10.5719 13.2547 10.7277 13.15 10.8587 13.0181L16.6927 7.18413L13.1697 3.65813L7.37167 9.45613ZM17.7567 6.12613L18.3727 5.51013C18.6785 5.20377 18.8503 4.78854 18.8503 4.35563C18.8503 3.92271 18.6785 3.50749 18.3727 3.20113L17.1557 1.98313C16.8487 1.67762 16.4333 1.5061 16.0002 1.5061C15.5671 1.5061 15.1516 1.67762 14.8447 1.98313L14.2307 2.59713L17.7567 6.12613Z" fill="black"/>
</svg>
