<svg width="21" height="18" viewBox="0 0 21 18" fill="none" xmlns="http://www.w3.org/2000/svg">
<path d="M7.36267 11.8647C3.39967 11.8647 0.0136719 12.4767 0.0136719 14.9247C0.0136719 17.3727 3.37767 18.0067 7.36267 18.0067C11.3267 18.0067 14.7117 17.3947 14.7117 14.9467C14.7117 12.4987 11.3487 11.8647 7.36267 11.8647Z" fill="black"/>
<path opacity="0.4" d="M7.36251 9.53176C7.99504 9.54008 8.62297 9.4233 9.2102 9.18812C9.79744 8.95293 10.3324 8.604 10.7843 8.16137C11.2362 7.71874 11.5962 7.19114 11.8436 6.60892C12.0909 6.02669 12.2207 5.40132 12.2255 4.76876C12.2206 4.13629 12.0907 3.51102 11.8433 2.92892C11.5959 2.34681 11.2359 1.81933 10.784 1.37681C10.3321 0.934283 9.79715 0.585435 9.20997 0.350316C8.6228 0.115197 7.99495 -0.00155782 7.36251 0.00676308C6.73007 -0.00155782 6.10222 0.115197 5.51505 0.350316C4.92788 0.585435 4.39296 0.934283 3.94105 1.37681C3.48914 1.81933 3.12915 2.34681 2.88176 2.92892C2.63437 3.51102 2.50446 4.13629 2.49951 4.76876C2.50433 5.40132 2.63414 6.02669 2.88147 6.60892C3.1288 7.19114 3.48878 7.71874 3.9407 8.16137C4.39262 8.604 4.92758 8.95293 5.51482 9.18812C6.10206 9.4233 6.72999 9.54008 7.36251 9.53176Z" fill="black"/>
<path opacity="0.4" d="M14.1878 4.85453C14.191 6.15791 13.7941 7.43087 13.0508 8.50153C13.0338 8.52642 13.0235 8.55524 13.0208 8.58524C13.0181 8.61524 13.0231 8.64544 13.0353 8.67298C13.0475 8.70052 13.0665 8.72448 13.0906 8.7426C13.1147 8.76072 13.143 8.7724 13.1728 8.77653C13.358 8.80709 13.5451 8.82446 13.7328 8.82853C14.6448 8.86846 15.5436 8.59871 16.2829 8.06312C17.0222 7.52753 17.5585 6.7576 17.8048 5.87853C17.9638 5.27611 17.9815 4.6451 17.8565 4.03472C17.7315 3.42434 17.4672 2.85108 17.0842 2.35966C16.7011 1.86824 16.2098 1.47194 15.6484 1.20167C15.087 0.931395 14.4708 0.794456 13.8478 0.80153C13.5731 0.801453 13.2991 0.828585 13.0298 0.88253C12.9921 0.888262 12.9581 0.908323 12.9348 0.93853C12.9251 0.958704 12.9217 0.981342 12.9251 1.00347C12.9285 1.0256 12.9385 1.04619 12.9538 1.06253C13.7576 2.16331 14.1898 3.49152 14.1878 4.85453Z" fill="black"/>
<path d="M19.7925 12.1759C19.525 11.7563 19.1631 11.4051 18.7356 11.1504C18.3081 10.8956 17.8269 10.7444 17.3305 10.7089C16.0959 10.4736 14.8403 10.3657 13.5835 10.3869C13.5748 10.3876 13.5665 10.3909 13.5597 10.3965C13.5529 10.402 13.548 10.4095 13.5455 10.4179C13.5447 10.4293 13.5476 10.4408 13.5537 10.4505C13.5598 10.4602 13.5689 10.4677 13.5795 10.4719C14.2795 10.8109 16.9875 12.2869 16.6455 15.3989C16.6414 15.4305 16.6446 15.4627 16.6549 15.4929C16.6652 15.5231 16.6824 15.5504 16.705 15.5729C16.7277 15.5954 16.7552 15.6123 16.7855 15.6223C16.8158 15.6324 16.848 15.6353 16.8795 15.6309C17.5455 15.5379 19.2615 15.1769 19.7925 14.0539C19.9378 13.7622 20.0133 13.4408 20.0133 13.1149C20.0133 12.789 19.9378 12.4676 19.7925 12.1759Z" fill="black"/>
</svg>
