<svg width="21" height="20" viewBox="0 0 21 20" fill="red" xmlns="http://www.w3.org/2000/svg">
<path d="M4.44667 20.0068C3.27111 20.0052 2.14418 19.5374 1.31312 18.706C0.482053 17.8745 0.0147301 16.7474 0.0136719 15.5718L0.0136719 4.44284C0.0147296 3.26718 0.482021 2.13993 1.31305 1.30834C2.14409 0.476743 3.27102 0.00868897 4.44667 0.00683594L9.32167 0.00683594C10.4978 0.00815933 11.6253 0.475947 12.4569 1.30757C13.2886 2.1392 13.7563 3.26674 13.7577 4.44284V5.37384C13.7577 5.57275 13.6787 5.76351 13.538 5.90417C13.3973 6.04482 13.2066 6.12384 13.0077 6.12384C12.8088 6.12384 12.618 6.04482 12.4773 5.90417C12.3367 5.76351 12.2577 5.57275 12.2577 5.37384V4.44284C12.2571 3.66432 11.9476 2.91785 11.3972 2.36736C10.8467 1.81686 10.1002 1.50737 9.32167 1.50684H4.44667C3.6686 1.5079 2.92274 1.81766 2.37284 2.36812C1.82294 2.91859 1.51394 3.66476 1.51367 4.44284V15.5718C1.51446 16.3497 1.82367 17.0954 2.37348 17.6456C2.9233 18.1958 3.66885 18.5055 4.44667 18.5068H9.33267C10.108 18.506 10.8514 18.1978 11.3997 17.6496C11.9481 17.1014 12.2566 16.3582 12.2577 15.5828V14.6398C12.2577 14.4409 12.3367 14.2502 12.4773 14.1095C12.618 13.9689 12.8088 13.8898 13.0077 13.8898C13.2066 13.8898 13.3973 13.9689 13.538 14.1095C13.6787 14.2502 13.7577 14.4409 13.7577 14.6398V15.5828C13.7561 16.7558 13.2893 17.8803 12.4598 18.7097C11.6303 19.539 10.5057 20.0055 9.33267 20.0068H4.44667ZM16.3407 13.4518C16.2002 13.3112 16.1213 13.1206 16.1213 12.9218C16.1213 12.7231 16.2002 12.5325 16.3407 12.3918L17.9817 10.7568H7.75867C7.55976 10.7568 7.36899 10.6778 7.22834 10.5372C7.08769 10.3965 7.00867 10.2057 7.00867 10.0068C7.00867 9.80792 7.08769 9.61716 7.22834 9.47651C7.36899 9.33585 7.55976 9.25684 7.75867 9.25684H17.9857L16.3437 7.62284C16.2739 7.55337 16.2186 7.47084 16.1807 7.37998C16.1429 7.28911 16.1233 7.19168 16.1231 7.09325C16.123 6.99482 16.1422 6.89732 16.1797 6.80631C16.2171 6.7153 16.2722 6.63257 16.3417 6.56284C16.4111 6.4931 16.4937 6.43774 16.5845 6.3999C16.6754 6.36206 16.7728 6.34249 16.8713 6.3423C16.9697 6.34212 17.0672 6.36132 17.1582 6.39882C17.2492 6.43631 17.3319 6.49137 17.4017 6.56084L20.3147 9.46084C20.4559 9.59331 20.5401 9.77545 20.5497 9.96884V9.97384C20.5497 9.97384 20.5497 9.98284 20.5497 9.98684C20.5497 9.99084 20.5497 9.99984 20.5497 10.0058C20.5497 10.0118 20.5497 10.0188 20.5497 10.0248C20.5497 10.0308 20.5497 10.0328 20.5497 10.0378V10.0438C20.5457 10.123 20.5292 10.2009 20.5007 10.2748V10.2858V10.2928V10.2998V10.3108C20.4721 10.3741 20.4347 10.433 20.3897 10.4858C20.3718 10.5069 20.3528 10.5269 20.3327 10.5458L17.4187 13.4458C17.278 13.5863 17.0874 13.6652 16.8887 13.6652C16.6899 13.6652 16.4993 13.5863 16.3587 13.4458L16.3407 13.4518Z" fill="#EF1E1E"/>
</svg>
